ffmpeg version 3.4.6-0ubuntu0.18.04.1 Copyright (c) 2000-2019 the FFmpeg developers
  built with gcc 7 (Ubuntu 7.3.0-16ubuntu3)
  configuration: --prefix=/usr --extra-version=0ubuntu0.18.04.1 --toolchain=hardened --libdir=/usr/lib/x86_64-linux-gnu --incdir=/usr/include/x86_64-linux-gnu --enable-gpl --disable-stripping --enable-avresample --enable-avisynth --enable-gnutls --enable-ladspa --enable-libass --enable-libbluray --enable-libbs2b --enable-libcaca --enable-libcdio --enable-libflite --enable-libfontconfig --enable-libfreetype --enable-libfribidi --enable-libgme --enable-libgsm --enable-libmp3lame --enable-libmysofa --enable-libopenjpeg --enable-libopenmpt --enable-libopus --enable-libpulse --enable-librubberband --enable-librsvg --enable-libshine --enable-libsnappy --enable-libsoxr --enable-libspeex --enable-libssh --enable-libtheora --enable-libtwolame --enable-libvorbis --enable-libvpx --enable-libwavpack --enable-libwebp --enable-libx265 --enable-libxml2 --enable-libxvid --enable-libzmq --enable-libzvbi --enable-omx --enable-openal --enable-opengl --enable-sdl2 --enable-libdc1394 --enable-libdrm --enable-libiec61883 --enable-chromaprint --enable-frei0r --enable-libopencv --enable-libx264 --enable-shared
  libavutil      55. 78.100 / 55. 78.100
  libavcodec     57.107.100 / 57.107.100
  libavformat    57. 83.100 / 57. 83.100
  libavdevice    57. 10.100 / 57. 10.100
  libavfilter     6.107.100 /  6.107.100
  libavresample   3.  7.  0 /  3.  7.  0
  libswscale      4.  8.100 /  4.  8.100
  libswresample   2.  9.100 /  2.  9.100
  libpostproc    54.  7.100 / 54.  7.100
Input #0, image2pipe, from 'pipe:':
  Duration: N/A, bitrate: N/A
    Stream #0:0: Video: ppm, rgb24, 320x240, 20 fps, 20 tbr, 20 tbn, 20 tbc
Stream mapping:
  Stream #0:0 -> #0:0 (ppm (native) -> h264 (libx264))
[libx264 @ 0x55d0040e3f40] using cpu capabilities: MMX2 SSE2Fast SSSE3 SSE4.2 AVX FMA3 BMI2 AVX2
[libx264 @ 0x55d0040e3f40] profile High, level 1.3
[libx264 @ 0x55d0040e3f40] 264 - core 152 r2854 e9a5903 - H.264/MPEG-4 AVC codec - Copyleft 2003-2017 - http://www.videolan.org/x264.html - options: cabac=1 ref=3 deblock=1:0:0 analyse=0x3:0x113 me=hex subme=7 psy=1 psy_rd=1.00:0.00 mixed_ref=1 me_range=16 chroma_me=1 trellis=1 8x8dct=1 cqm=0 deadzone=21,11 fast_pskip=1 chroma_qp_offset=-2 threads=1 lookahead_threads=1 sliced_threads=0 nr=0 decimate=1 interlaced=0 bluray_compat=0 constrained_intra=0 bframes=3 b_pyramid=2 b_adapt=1 b_bias=0 direct=1 weightb=1 open_gop=0 weightp=2 keyint=250 keyint_min=20 scenecut=40 intra_refresh=0 rc_lookahead=40 rc=abr mbtree=1 bitrate=400 ratetol=1.0 qcomp=0.60 qpmin=0 qpmax=69 qpstep=4 ip_ratio=1.40 aq=1:1.00
Output #0, mp4, to './mission_records/6d85ac83-06ae-4e05-81a6-904be8a08f12/video.mp4':
  Metadata:
    encoder         : Lavf57.83.100
    Stream #0:0: Video: h264 (libx264) (avc1 / 0x31637661), yuv420p, 320x240, q=-1--1, 400 kb/s, 20 fps, 10240 tbn, 20 tbc
    Metadata:
      encoder         : Lavc57.107.100 libx264
    Side data:
      cpb: bitrate max/min/avg: 0/0/400000 buffer size: 0 vbv_delay: -1
frame=   31 fps=0.0 q=0.0 size=       0kB time=00:00:00.00 bitrate=N/A speed=   0x    frame=   39 fps= 37 q=0.0 size=       0kB time=00:00:00.00 bitrate=N/A speed=   0x    frame=   46 fps= 29 q=25.0 size=       0kB time=00:00:00.10 bitrate=   3.8kbits/s speed=0.0631x    frame=   51 fps= 24 q=25.0 size=       0kB time=00:00:00.35 bitrate=   1.1kbits/s speed=0.166x    frame=   56 fps= 21 q=26.0 size=       0kB time=00:00:00.60 bitrate=   0.6kbits/s speed=0.225x    frame=   60 fps= 19 q=27.0 size=       0kB time=00:00:00.80 bitrate=   0.5kbits/s speed=0.251x    frame=   70 fps= 19 q=27.0 size=       0kB time=00:00:01.30 bitrate=   0.3kbits/s speed=0.345x    frame=   80 fps= 19 q=28.0 size=       0kB time=00:00:01.80 bitrate=   0.2kbits/s speed=0.422x    frame=   88 fps= 18 q=27.0 size=       0kB time=00:00:02.20 bitrate=   0.2kbits/s speed=0.457x    frame=   95 fps= 18 q=27.0 size=       0kB time=00:00:02.55 bitrate=   0.2kbits/s speed=0.474x    frame=   95 fps= 15 q=28.0 Lsize=     241kB time=00:00:04.60 bitrate= 429.3kbits/s speed=0.733x    
video:240kB audio:0kB subtitle:0kB other streams:0kB global headers:0kB muxing overhead: 0.595791%
[libx264 @ 0x55d0040e3f40] frame I:5     Avg QP:19.22  size:  4293
[libx264 @ 0x55d0040e3f40] frame P:74    Avg QP:22.31  size:  2506
[libx264 @ 0x55d0040e3f40] frame B:16    Avg QP:22.65  size:  2359
[libx264 @ 0x55d0040e3f40] consecutive B-frames: 73.7% 10.5%  3.2% 12.6%
[libx264 @ 0x55d0040e3f40] mb I  I16..4: 28.7% 61.7%  9.6%
[libx264 @ 0x55d0040e3f40] mb P  I16..4: 20.5% 32.5%  4.0%  P16..4: 21.0%  4.5%  3.9%  0.0%  0.0%    skip:13.6%
[libx264 @ 0x55d0040e3f40] mb B  I16..4:  9.6% 14.2%  1.8%  B16..8: 26.9%  5.9%  2.4%  direct:19.0%  skip:20.3%  L0:47.4% L1:47.5% BI: 5.1%
[libx264 @ 0x55d0040e3f40] final ratefactor: 22.59
[libx264 @ 0x55d0040e3f40] 8x8 transform intra:57.3% inter:72.2%
[libx264 @ 0x55d0040e3f40] coded y,uvDC,uvAC intra: 45.6% 26.2% 3.0% inter: 16.2% 24.7% 0.3%
[libx264 @ 0x55d0040e3f40] i16 v,h,dc,p: 10% 57% 10% 23%
[libx264 @ 0x55d0040e3f40] i8 v,h,dc,ddl,ddr,vr,hd,vl,hu:  4% 23% 43%  4%  5%  3%  7%  3%  7%
[libx264 @ 0x55d0040e3f40] i4 v,h,dc,ddl,ddr,vr,hd,vl,hu:  8% 37% 25%  4%  6%  3%  8%  3%  7%
[libx264 @ 0x55d0040e3f40] i8c dc,h,v,p: 59% 34%  1%  6%
[libx264 @ 0x55d0040e3f40] Weighted P-Frames: Y:20.3% UV:16.2%
[libx264 @ 0x55d0040e3f40] ref P L0: 66.8%  4.3% 18.9%  8.7%  1.3%
[libx264 @ 0x55d0040e3f40] ref B L0: 83.3% 14.1%  2.7%
[libx264 @ 0x55d0040e3f40] ref B L1: 97.3%  2.7%
[libx264 @ 0x55d0040e3f40] kb/s:412.10
